# xmcd
#
# Track frame offsets:
# 150
# 17973
# 31618
# 45508
# 58125
# 73738
# 85495
# 98923
# 112993
# 125255
# 144758
# 159370
# 171080
# 183100
# 195420
# 209763
# 223075
# 236808
#
# Disc length: 3299 seconds
#
#
# Revision: 0
# Processed by: cddbd v1.4PL0 Copyright (c) Steve Scherf et al.
# Submitted via: FreeRIP 2.00 
#
DISCID=f80ce112
DTITLE=Various Artist - The Boogie Woogie The small groups
DYEAR=1991
DGENRE=Boogie Woogie
TTITLE0=Jammin the Boogie
TTITLE1=Boogie Woogie
TTITLE2=Half Tigh Boogie
TTITLE3=Skid Row Boogie
TTITLE4=Pinetops Boogie
TTITLE5=Chips Boogie Woogie
TTITLE6=Boo Woo
TTITLE7=Central Avenue Breakdown
TTITLE8=Oscars Boogie
TTITLE9=Downtown Cafe Boogie
TTITLE10=Two Finger Boogie
TTITLE11=Vine Street Boogie
TTITLE12=Hold'em Boogie
TTITLE13=Bucks Boogie
TTITLE14=Dizzys Boogie
TTITLE15=Basement Boogie
TTITLE16=Death Ray Boogie
TTITLE17=Rejane Boogie
EXTD=
EXTT0=H.Young
EXTT1=Smith
EXTT2=Johnson Turner
EXTT3=C.Jones
EXTT4=Smith
EXTT5=
EXTT6=
EXTT7=
EXTT8=
EXTT9=
EXTT10=
EXTT11=
EXTT12=
EXTT13=
EXTT14=
EXTT15=
EXTT16=
EXTT17=
PLAYORDER=
